<svg width="24" height="24" viewBox="0 0 24 24" fill="none" xmlns="http://www.w3.org/2000/svg">
  <path d="M19 12V13C19.2652 13 19.5196 12.8946 19.7071 12.7071C19.8946 12.5196 20 12.2652 20 12H19ZM15 12L15 11H15L15 12ZM14 11L13 11L14 11ZM18 7V6V7ZM19 8L18 8L19 8ZM15 7L15 8L15 7ZM14 8L15 8L14 8ZM15 8L18 8V6L15 6L15 8ZM18 8L18 12H20L20 8L18 8ZM19 11L15 11L15 13L19 13V11ZM15 11L15 8L13 8L13 11L15 11ZM15 11H15L13 11C13 12.1046 13.8954 13 15 13L15 11ZM18 8L18 8L20 8C20 6.89543 19.1046 6 18 6V8ZM15 6C13.8954 6 13 6.89543 13 8L15 8L15 8L15 6Z" fill="#8A90A3" />
  <path d="M16 17C17.6569 17 19 15.6569 19 14L19 12" stroke="#8A90A3" stroke-width="2" stroke-linecap="round" stroke-linejoin="round" />
  <path d="M10 12V13C10.2652 13 10.5196 12.8946 10.7071 12.7071C10.8946 12.5196 11 12.2652 11 12H10ZM6 12L6 11H6L6 12ZM5 11L4 11L5 11ZM9 7V6V7ZM10 8L9 8L10 8ZM6 7L6 8L6 7ZM5 8L6 8L5 8ZM6 8L9 8V6L6 6L6 8ZM9 8L9 12H11L11 8L9 8ZM10 11L6 11L6 13L10 13V11ZM6 11L6 8L4 8L4 11L6 11ZM6 11H6L4 11C4 12.1046 4.89543 13 6 13L6 11ZM9 8L9 8L11 8C11 6.89543 10.1046 6 9 6V8ZM6 6C4.89543 6 4 6.89543 4 8L6 8L6 8L6 6Z" fill="#8A90A3" />
  <path d="M7 17C8.65685 17 10 15.6569 10 14L10 12" stroke="#8A90A3" stroke-width="2" stroke-linecap="round" stroke-linejoin="round" />
</svg>