 <svg width="24" height="24" viewBox="0 0 24 24" fill="none" xmlns="http://www.w3.org/2000/svg">
   <path d="M8 11C7.44772 11 7 11.4477 7 12C7 12.5523 7.44772 13 8 13V11ZM8 18C7.44772 18 7 18.4477 7 19C7 19.5523 7.44772 20 8 20V18ZM8 13H13.5V11H8V13ZM13.5 18H8V20H13.5V18ZM16 15.5C16 16.8807 14.8807 18 13.5 18V20C15.9853 20 18 17.9853 18 15.5H16ZM13.5 13C14.8807 13 16 14.1193 16 15.5H18C18 13.0147 15.9853 11 13.5 11V13Z" fill="#8A90A3" />
   <path d="M8 5V19" stroke="#8A90A3" stroke-width="2" stroke-linecap="round" stroke-linejoin="round" />
   <path d="M8 4C7.44772 4 7 4.44772 7 5C7 5.55228 7.44772 6 8 6V4ZM8 11C7.44772 11 7 11.4477 7 12C7 12.5523 7.44772 13 8 13V11ZM8 6H12.5V4H8V6ZM12.5 11H8V13H12.5V11ZM15 8.5C15 9.88071 13.8807 11 12.5 11V13C14.9853 13 17 10.9853 17 8.5H15ZM12.5 6C13.8807 6 15 7.11929 15 8.5H17C17 6.01472 14.9853 4 12.5 4V6Z" fill="#8A90A3" />
 </svg>