 <svg width="48" height="48" viewBox="0 0 48 48" fill="none" xmlns="http://www.w3.org/2000/svg">
   <rect width="48" height="48" rx="8" fill="#FEF8DC" />
   <g clip-path="url(#clip0_2815_43718)">
     <path d="M23.9831 11.9997C20.7767 12.0522 17.7198 13.3645 15.4731 15.6527C14.349 16.7719 13.462 18.1063 12.8653 19.576C12.2686 21.0457 11.9743 22.6207 12.0001 24.2067C11.9982 25.7565 12.3023 27.2915 12.8947 28.7235C13.4871 30.1556 14.3564 31.4567 15.4525 32.5522C16.5487 33.6478 17.8503 34.5162 19.2828 35.1078C20.7152 35.6994 22.2503 36.0025 23.8001 35.9997H24.0141C27.2215 35.9667 30.2848 34.6627 32.5318 32.3739C34.7789 30.085 36.0262 26.9982 36.0001 23.7907C36.0038 22.2222 35.6938 20.6687 35.0883 19.2216C34.4829 17.7746 33.5942 16.4632 32.4746 15.3647C31.355 14.2661 30.027 13.4025 28.5687 12.8246C27.1104 12.2467 25.5513 11.9663 23.9831 11.9997ZM22.5001 28.5417C22.4929 28.3457 22.5248 28.1501 22.5941 27.9666C22.6633 27.783 22.7685 27.615 22.9034 27.4726C23.0383 27.3301 23.2003 27.216 23.3799 27.1369C23.5594 27.0577 23.7529 27.0152 23.9491 27.0117H23.9761C24.3707 27.0125 24.7497 27.166 25.0336 27.44C25.3176 27.7141 25.4844 28.0874 25.4991 28.4817C25.5064 28.6779 25.4746 28.8735 25.4054 29.0571C25.3362 29.2407 25.231 29.4087 25.0961 29.5512C24.9611 29.6937 24.7991 29.8078 24.6195 29.8869C24.4399 29.966 24.2463 30.0084 24.0501 30.0117H24.0231C23.6286 30.0105 23.2499 29.8568 22.9661 29.5829C22.6823 29.309 22.5153 28.9359 22.5001 28.5417ZM23.0001 24.4997V18.4997C23.0001 18.2345 23.1055 17.9802 23.293 17.7926C23.4805 17.6051 23.7349 17.4997 24.0001 17.4997C24.2653 17.4997 24.5197 17.6051 24.7072 17.7926C24.8947 17.9802 25.0001 18.2345 25.0001 18.4997V24.4997C25.0001 24.765 24.8947 25.0193 24.7072 25.2069C24.5197 25.3944 24.2653 25.4997 24.0001 25.4997C23.7349 25.4997 23.4805 25.3944 23.293 25.2069C23.1055 25.0193 23.0001 24.765 23.0001 24.4997Z" fill="#B99713" />
   </g>
   <defs>
     <clipPath id="clip0_2815_43718">
       <rect width="24" height="24" fill="white" transform="translate(12 12)" />
     </clipPath>
   </defs>
 </svg>