  <svg width="24" height="24" viewBox="0 0 24 24" fill="none" xmlns="http://www.w3.org/2000/svg">
    <path d="M14 12.5C14 13.0523 14.4477 13.5 15 13.5C15.5523 13.5 16 13.0523 16 12.5H14ZM15 19L14.2929 18.2929C14.0069 18.5789 13.9213 19.009 14.0761 19.3827C14.2309 19.7564 14.5955 20 15 20V19ZM21 20C21.5523 20 22 19.5523 22 19C22 18.4477 21.5523 18 21 18V20ZM16 12.5V12H14V12.5H16ZM18 10H18.1716V8H18V10ZM19.4645 13.1213L14.2929 18.2929L15.7071 19.7071L20.8787 14.5355L19.4645 13.1213ZM15 20H21V18H15V20ZM20 11.8284C20 12.3134 19.8074 12.7784 19.4645 13.1213L20.8787 14.5355C21.5966 13.8176 22 12.8438 22 11.8284H20ZM18.1716 10C19.1814 10 20 10.8186 20 11.8284H22C22 9.71405 20.286 8 18.1716 8V10ZM16 12C16 10.8954 16.8954 10 18 10V8C15.7909 8 14 9.79086 14 12H16Z" fill="#8A90A3" />
    <path d="M3 5V12M3 12V19M3 12H11M11 5V12M11 12V19" stroke="#8A90A3" stroke-width="2" stroke-linecap="round" stroke-linejoin="round" />
  </svg>