 <svg width="24" height="24" viewBox="0 0 24 24" fill="none" xmlns="http://www.w3.org/2000/svg">
   <path d="M15 8C14.4477 8 14 8.44772 14 9C14 9.55228 14.4477 10 15 10V8ZM21 9L21.7071 9.70711C21.9931 9.42111 22.0787 8.99099 21.9239 8.61732C21.7691 8.24364 21.4045 8 21 8V9ZM17 13L16.2929 12.2929C16.0069 12.5789 15.9213 13.009 16.0761 13.3827C16.2309 13.7564 16.5955 14 17 14V13ZM16.114 16.6657C15.9302 16.1449 15.359 15.8717 14.8382 16.0555C14.3174 16.2394 14.0442 16.8106 14.228 17.3314L16.114 16.6657ZM15 10H21V8H15V10ZM20.2929 8.29289L16.2929 12.2929L17.7071 13.7071L21.7071 9.70711L20.2929 8.29289ZM17 14H18V12H17V14ZM20 16C20 17.1046 19.1046 18 18 18V20C20.2091 20 22 18.2091 22 16H20ZM18 14C19.1046 14 20 14.8954 20 16H22C22 13.7909 20.2091 12 18 12V14ZM18 18C17.5861 18 17.1826 17.8717 16.8448 17.6328L15.6897 19.2654C16.3653 19.7435 17.1725 20 18 20V18ZM16.8448 17.6328C16.5071 17.3938 16.2517 17.0559 16.114 16.6657L14.228 17.3314C14.5035 18.1117 15.0141 18.7875 15.6897 19.2654L16.8448 17.6328Z" fill="#8A90A3" />
   <path d="M3 5V12M3 12V19M3 12H11M11 5V12M11 12V19" stroke="#8A90A3" stroke-width="2" stroke-linecap="round" stroke-linejoin="round" />
 </svg>