 <svg width="24" height="24" viewBox="0 0 24 24" fill="none" xmlns="http://www.w3.org/2000/svg">
   <path d="M21 9H17L15.75 14.0158C15.8285 13.9268 15.912 13.8427 16 13.764C16.3509 13.4502 16.7732 13.2211 17.2347 13.0993C17.9264 12.9168 18.6606 12.9874 19.3049 13.2986C19.9491 13.6098 20.4609 14.1409 20.748 14.7962C21.0351 15.4515 21.0785 16.1879 20.8705 16.8724C20.6624 17.5569 20.2166 18.1445 19.6134 18.5293C19.0102 18.914 18.2894 19.0705 17.581 18.9706C16.8726 18.8706 16.2232 18.5208 15.75 17.9842" stroke="#8A90A3" stroke-width="2" stroke-linecap="round" stroke-linejoin="round" />
   <path d="M3 5V12M3 12V19M3 12H11M11 5V12M11 12V19" stroke="#8A90A3" stroke-width="2" stroke-linecap="round" stroke-linejoin="round" />
 </svg>