 <svg width="24" height="24" viewBox="0 0 24 24" fill="none" xmlns="http://www.w3.org/2000/svg">
   <path d="M19.8757 8.48283C20.1424 7.99918 19.9665 7.39094 19.4828 7.12428C18.9992 6.85763 18.3909 7.03353 18.1243 7.51717L19.8757 8.48283ZM19.0026 14.3004C19.9592 14.8496 20.2826 16.0607 19.7338 17.0059L21.4634 18.0101C22.5714 16.1018 21.9115 13.6642 19.9984 12.5659L19.0026 14.3004ZM19.7338 17.0059C19.1831 17.9544 17.9583 18.2837 16.9984 17.7326L16.0026 19.4671C17.9125 20.5635 20.3572 19.9151 21.4634 18.0101L19.7338 17.0059ZM16.9984 17.7326C16.0418 17.1835 15.7184 15.9723 16.2672 15.0272L14.5376 14.0229C13.4296 15.9312 14.0895 18.3688 16.0026 19.4671L16.9984 17.7326ZM16.2672 15.0272C16.818 14.0787 18.0427 13.7494 19.0026 14.3004L19.9984 12.5659C18.0885 11.4695 15.6438 12.1179 14.5376 14.0229L16.2672 15.0272ZM16.2781 15.0079L19.8757 8.48283L18.1243 7.51717L14.5267 14.0422L16.2781 15.0079Z" fill="#8A90A3" />
   <path d="M3 5V12M3 12V19M3 12H11M11 5V12M11 12V19" stroke="#8A90A3" stroke-width="2" stroke-linecap="round" stroke-linejoin="round" />
 </svg>