 <svg width="20" height="20" viewBox="0 0 20 20" fill="none" xmlns="http://www.w3.org/2000/svg">
   <path d="M3.24984 10C3.24984 8.57504 4.40817 7.41671 5.83317 7.41671H9.1665V5.83337H5.83317C3.53317 5.83337 1.6665 7.70004 1.6665 10C1.6665 12.3 3.53317 14.1667 5.83317 14.1667H9.1665V12.5834H5.83317C4.40817 12.5834 3.24984 11.425 3.24984 10ZM6.6665 10.8334H13.3332V9.16671H6.6665V10.8334ZM14.1665 5.83337H10.8332V7.41671H14.1665C15.5915 7.41671 16.7498 8.57504 16.7498 10C16.7498 11.425 15.5915 12.5834 14.1665 12.5834H10.8332V14.1667H14.1665C16.4665 14.1667 18.3332 12.3 18.3332 10C18.3332 7.70004 16.4665 5.83337 14.1665 5.83337Z" fill="#8A90A3" />
 </svg>