<svg width="20" height="20" viewBox="0 0 20 20" fill="none" xmlns="http://www.w3.org/2000/svg">
  <path d="M3.3335 8.75C2.64183 8.75 2.0835 9.30833 2.0835 10C2.0835 10.6917 2.64183 11.25 3.3335 11.25C4.02516 11.25 4.5835 10.6917 4.5835 10C4.5835 9.30833 4.02516 8.75 3.3335 8.75ZM3.3335 3.75C2.64183 3.75 2.0835 4.30833 2.0835 5C2.0835 5.69167 2.64183 6.25 3.3335 6.25C4.02516 6.25 4.5835 5.69167 4.5835 5C4.5835 4.30833 4.02516 3.75 3.3335 3.75ZM3.3335 13.75C2.64183 13.75 2.0835 14.3167 2.0835 15C2.0835 15.6833 2.65016 16.25 3.3335 16.25C4.01683 16.25 4.5835 15.6833 4.5835 15C4.5835 14.3167 4.02516 13.75 3.3335 13.75ZM5.8335 15.8333H17.5002V14.1667H5.8335V15.8333ZM5.8335 10.8333H17.5002V9.16667H5.8335V10.8333ZM5.8335 4.16667V5.83333H17.5002V4.16667H5.8335Z" fill="#8A90A3" />
</svg>