 <svg width="48" height="48" viewBox="0 0 48 48" fill="none" xmlns="http://www.w3.org/2000/svg">
   <rect width="48" height="48" rx="8" fill="#EBE8FC" />
   <path d="M27.0669 15.9859C27.0206 15.9391 26.9654 15.902 26.9047 15.8766C26.8439 15.8512 26.7788 15.838 26.7129 15.8379C26.6471 15.8379 26.582 15.8509 26.5213 15.8761C26.4605 15.9013 26.4054 15.9383 26.3589 15.9849L15.4369 26.9099C15.3432 27.0037 15.2905 27.1308 15.2905 27.2634C15.2905 27.396 15.3432 27.5231 15.4369 27.6169L20.3849 32.5649C20.4787 32.6586 20.6058 32.7113 20.7384 32.7113C20.871 32.7113 20.9982 32.6586 21.0919 32.5649L32.0089 21.6479C32.1024 21.5542 32.1548 21.4272 32.1548 21.2949C32.1548 21.1626 32.1024 21.0356 32.0089 20.9419L27.0669 15.9859Z" fill="#6C58FD" />
   <path d="M14.43 28.8002C14.3671 28.7375 14.2887 28.6927 14.2027 28.6704C14.1168 28.648 14.0264 28.649 13.941 28.6732C13.8554 28.6972 13.7778 28.7435 13.7161 28.8075C13.6544 28.8715 13.6109 28.9508 13.59 29.0372L12.084 35.3142C12.0641 35.3973 12.0659 35.4842 12.0892 35.5665C12.1125 35.6488 12.1565 35.7237 12.217 35.7842C12.2779 35.8439 12.3529 35.8874 12.4351 35.9105C12.5172 35.9335 12.6039 35.9355 12.687 35.9162L18.959 34.4162C19.0455 34.3955 19.1249 34.3521 19.189 34.2905C19.2532 34.2288 19.2997 34.1512 19.3238 34.0657C19.348 33.9801 19.3489 33.8896 19.3264 33.8035C19.3039 33.7175 19.2589 33.639 19.196 33.5762L14.43 28.8002Z" fill="#6C58FD" />
   <path d="M35.1999 14.9238L33.0769 12.7998C32.6082 12.332 31.973 12.0693 31.3109 12.0693C30.6487 12.0693 30.0136 12.332 29.5449 12.7998L28.1269 14.2168C28.0331 14.3106 27.9805 14.4377 27.9805 14.5703C27.9805 14.7029 28.0331 14.83 28.1269 14.9238L33.0769 19.8728C33.1706 19.9665 33.2978 20.0192 33.4304 20.0192C33.5629 20.0192 33.6901 19.9665 33.7839 19.8728L35.1999 18.4538C35.667 17.9852 35.9293 17.3505 35.9293 16.6888C35.9293 16.0271 35.667 15.3924 35.1999 14.9238Z" fill="#6C58FD" />
 </svg>