<svg width="24" height="24" viewBox="0 0 24 24" fill="none" xmlns="http://www.w3.org/2000/svg">
  <path d="M10 17H20" stroke="#8A90A3" stroke-width="2" stroke-linecap="round" stroke-linejoin="round" />
  <path d="M3 15.6853C3 16.2376 3.44772 16.6853 4 16.6853C4.55228 16.6853 5 16.2376 5 15.6853H3ZM6.67568 16.4324L5.87568 15.8324L5.87568 15.8324L6.67568 16.4324ZM4 20L3.2 19.4C2.97274 19.703 2.93618 20.1084 3.10557 20.4472C3.27496 20.786 3.62123 21 4 21V20ZM7 21C7.55228 21 8 20.5523 8 20C8 19.4477 7.55228 19 7 19V21ZM5 15.6853V15.5H3V15.6853H5ZM5.5 15H5.54054V13H5.5V15ZM5.87568 15.8324L3.2 19.4L4.8 20.6L7.47568 17.0324L5.87568 15.8324ZM4 21H7V19H4V21ZM6 15.4595C6 15.594 5.95638 15.7248 5.87568 15.8324L7.47568 17.0324C7.81602 16.5786 8 16.0267 8 15.4595H6ZM5.54054 15C5.79429 15 6 15.2057 6 15.4595H8C8 14.1011 6.89886 13 5.54054 13V15ZM5 15.5C5 15.2239 5.22386 15 5.5 15V13C4.11929 13 3 14.1193 3 15.5H5Z" fill="#8A90A3" />
  <path d="M10 12H20" stroke="#8A90A3" stroke-width="2" stroke-linecap="round" stroke-linejoin="round" />
  <path d="M10 7H20" stroke="#8A90A3" stroke-width="2" stroke-linecap="round" stroke-linejoin="round" />
  <path d="M4 5L6 4V10" stroke="#8A90A3" stroke-width="2" stroke-linecap="round" stroke-linejoin="round" />
</svg>