<svg width="20" height="20" viewBox="0 0 20 20" fill="none" xmlns="http://www.w3.org/2000/svg">
<mask id="path-1-inside-1_1170_1294" fill="white">
<path d="M16.6665 9.16663C16.6665 13.3088 13.3086 16.6666 9.1665 16.6666C5.02437 16.6666 1.6665 13.3088 1.6665 9.16663C1.6665 5.02449 5.02437 1.66663 9.1665 1.66663C13.3086 1.66663 16.6665 5.02449 16.6665 9.16663Z"/>
</mask>
<path d="M14.9998 9.16663C14.9998 12.3883 12.3882 15 9.1665 15V18.3333C14.2291 18.3333 18.3332 14.2292 18.3332 9.16663H14.9998ZM9.1665 15C5.94484 15 3.33317 12.3883 3.33317 9.16663H-0.000162721C-0.000162721 14.2292 4.10389 18.3333 9.1665 18.3333V15ZM3.33317 9.16663C3.33317 5.94496 5.94484 3.33329 9.1665 3.33329V-4.06504e-05C4.10389 -4.06504e-05 -0.000162721 4.10402 -0.000162721 9.16663H3.33317ZM9.1665 3.33329C12.3882 3.33329 14.9998 5.94496 14.9998 9.16663H18.3332C18.3332 4.10402 14.2291 -4.06504e-05 9.1665 -4.06504e-05V3.33329Z" fill="#2AD8BF" mask="url(#path-1-inside-1_1170_1294)"/>
<path d="M13.3335 14.1667L17.5002 18.3334" stroke="#2AD8BF" stroke-width="1.66667"/>
</svg>
