<svg width="48" height="48" viewBox="0 0 48 48" fill="none" xmlns="http://www.w3.org/2000/svg">
  <rect width="48" height="48" rx="8" fill="#E2F8F1" />
  <g clip-path="url(#clip0_2815_43770)">
    <path d="M25.875 33.5H22.125C22.0397 33.5 21.9559 33.5218 21.8814 33.5633C21.8069 33.6049 21.7443 33.6648 21.6996 33.7373C21.6548 33.8099 21.6293 33.8927 21.6255 33.9779C21.6217 34.063 21.6398 34.1478 21.678 34.224L22.014 34.895C22.1789 35.2275 22.4336 35.5072 22.7492 35.7024C23.0649 35.8977 23.4288 36.0008 23.8 36H24.2C24.5707 36.0013 24.9345 35.899 25.2503 35.7047C25.566 35.5103 25.8212 35.2316 25.987 34.9L26.323 34.229C26.3612 34.1527 26.3793 34.0679 26.3755 33.9826C26.3716 33.8973 26.3461 33.8145 26.3011 33.7419C26.2562 33.6693 26.1935 33.6095 26.1189 33.568C26.0443 33.5265 25.9603 33.5048 25.875 33.505V33.5Z" fill="#2CCD9A" />
    <path d="M24 16.5C24.2652 16.5 24.5196 16.3946 24.7071 16.2071C24.8946 16.0196 25 15.7652 25 15.5V13C25 12.7348 24.8946 12.4804 24.7071 12.2929C24.5196 12.1054 24.2652 12 24 12C23.7348 12 23.4804 12.1054 23.2929 12.2929C23.1054 12.4804 23 12.7348 23 13V15.5C23 15.7652 23.1054 16.0196 23.2929 16.2071C23.4804 16.3946 23.7348 16.5 24 16.5Z" fill="#2CCD9A" />
    <path d="M33.1919 15.8084C33.0043 15.6209 32.75 15.5156 32.4849 15.5156C32.2197 15.5156 31.9654 15.6209 31.7779 15.8084L30.0109 17.5764C29.9153 17.6687 29.8392 17.779 29.7868 17.901C29.7343 18.023 29.7068 18.1542 29.7056 18.287C29.7045 18.4198 29.7298 18.5515 29.78 18.6744C29.8303 18.7973 29.9046 18.9089 29.9985 19.0028C30.0924 19.0967 30.204 19.171 30.3269 19.2212C30.4498 19.2715 30.5815 19.2968 30.7143 19.2957C30.847 19.2945 30.9783 19.2669 31.1003 19.2145C31.2223 19.1621 31.3326 19.0859 31.4249 18.9904L33.1919 17.2224C33.3793 17.0349 33.4846 16.7806 33.4846 16.5154C33.4846 16.2502 33.3793 15.9959 33.1919 15.8084Z" fill="#2CCD9A" />
    <path d="M35 24H33C32.7348 24 32.4804 24.1054 32.2929 24.2929C32.1054 24.4804 32 24.7348 32 25C32 25.2652 32.1054 25.5196 32.2929 25.7071C32.4804 25.8946 32.7348 26 33 26H35C35.2652 26 35.5196 25.8946 35.7071 25.7071C35.8946 25.5196 36 25.2652 36 25C36 24.7348 35.8946 24.4804 35.7071 24.2929C35.5196 24.1054 35.2652 24 35 24Z" fill="#2CCD9A" />
    <path d="M17.9901 17.5761L16.2221 15.8081C16.0335 15.6259 15.7809 15.5251 15.5187 15.5274C15.2565 15.5297 15.0056 15.6348 14.8202 15.8202C14.6348 16.0056 14.5297 16.2565 14.5274 16.5187C14.5251 16.7809 14.6259 17.0335 14.8081 17.2221L16.5761 18.9901C16.7647 19.1722 17.0173 19.273 17.2795 19.2707C17.5417 19.2685 17.7925 19.1633 17.9779 18.9779C18.1633 18.7925 18.2685 18.5417 18.2707 18.2795C18.273 18.0173 18.1722 17.7647 17.9901 17.5761Z" fill="#2CCD9A" />
    <path d="M15 24H13C12.7348 24 12.4804 24.1054 12.2929 24.2929C12.1054 24.4804 12 24.7348 12 25C12 25.2652 12.1054 25.5196 12.2929 25.7071C12.4804 25.8946 12.7348 26 13 26H15C15.2652 26 15.5196 25.8946 15.7071 25.7071C15.8946 25.5196 16 25.2652 16 25C16 24.7348 15.8946 24.4804 15.7071 24.2929C15.5196 24.1054 15.2652 24 15 24Z" fill="#2CCD9A" />
    <path d="M24.0001 18C22.6182 18.0021 21.2729 18.4445 20.1595 19.263C19.0462 20.0816 18.2226 21.2337 17.8085 22.5521C17.3944 23.8705 17.4112 25.2866 17.8566 26.5948C18.3019 27.9029 19.1526 29.0351 20.2851 29.827C20.3515 29.873 20.4057 29.9345 20.4432 30.0061C20.4806 30.0776 20.5001 30.1572 20.5001 30.238V31C20.5001 31.2652 20.6055 31.5196 20.793 31.7071C20.9805 31.8946 21.2349 32 21.5001 32H26.5001C26.7653 32 27.0197 31.8946 27.2072 31.7071C27.3948 31.5196 27.5001 31.2652 27.5001 31V30.237C27.5001 30.1562 27.5196 30.0766 27.5571 30.0051C27.5945 29.9335 27.6487 29.872 27.7151 29.826C28.8505 29.0358 29.704 27.9038 30.1512 26.5948C30.5984 25.2858 30.616 23.8682 30.2014 22.5485C29.7868 21.2288 28.9617 20.0759 27.8463 19.2577C26.7309 18.4396 25.3834 17.999 24.0001 18Z" fill="#2CCD9A" />
  </g>
  <defs>
    <clipPath id="clip0_2815_43770">
      <rect width="24" height="24" fill="white" transform="translate(12 12)" />
    </clipPath>
  </defs>
</svg>