  <svg width="48" height="48" viewBox="0 0 48 48" fill="none" xmlns="http://www.w3.org/2000/svg">
    <rect width="48" height="48" rx="8" fill="#FDEEED" />
    <g clip-path="url(#clip0_2814_43648)">
      <path d="M35.2498 35.2348C35.3796 35.2348 35.5071 35.2012 35.62 35.1373C35.7329 35.0733 35.8272 34.9811 35.8938 34.8698C35.9604 34.7584 35.997 34.6317 36 34.502C36.003 34.3723 35.9723 34.2441 35.9108 34.1298L24.6608 13.1298C24.5903 13.0182 24.4928 12.9264 24.3772 12.8627C24.2616 12.799 24.1318 12.7656 23.9998 12.7656C23.8679 12.7656 23.7381 12.799 23.6225 12.8627C23.5069 12.9264 23.4094 13.0182 23.3388 13.1298L12.0888 34.1298C12.0274 34.2441 11.9967 34.3723 11.9997 34.502C12.0027 34.6317 12.0393 34.7584 12.1059 34.8698C12.1725 34.9811 12.2668 35.0733 12.3797 35.1373C12.4926 35.2012 12.6201 35.2348 12.7498 35.2348H35.2498ZM23.9998 32.4848C23.7032 32.4848 23.4132 32.3968 23.1665 32.232C22.9198 32.0672 22.7276 31.8329 22.614 31.5588C22.5005 31.2847 22.4708 30.9831 22.5287 30.6921C22.5865 30.4012 22.7294 30.1339 22.9392 29.9241C23.149 29.7143 23.4162 29.5715 23.7072 29.5136C23.9982 29.4557 24.2998 29.4854 24.5739 29.5989C24.848 29.7125 25.0822 29.9047 25.2471 30.1514C25.4119 30.3981 25.4998 30.6881 25.4998 30.9848C25.4998 31.3826 25.3418 31.7641 25.0605 32.0454C24.7792 32.3267 24.3977 32.4848 23.9998 32.4848ZM23.9998 20.2348C24.2651 20.2348 24.5194 20.3401 24.707 20.5277C24.8945 20.7152 24.9998 20.9696 24.9998 21.2348V26.6998C24.9998 26.965 24.8945 27.2193 24.707 27.4069C24.5194 27.5944 24.2651 27.6998 23.9998 27.6998C23.7346 27.6998 23.4803 27.5944 23.2927 27.4069C23.1052 27.2193 22.9998 26.965 22.9998 26.6998V21.2348C22.9998 20.9696 23.1052 20.7152 23.2927 20.5277C23.4803 20.3401 23.7346 20.2348 23.9998 20.2348Z" fill="#E02D1B" />
    </g>
    <defs>
      <clipPath id="clip0_2814_43648">
        <rect width="24" height="24" fill="white" transform="translate(12 12)" />
      </clipPath>
    </defs>
  </svg>